# xmcd
#
# Track frame offsets:
#	150
#	27898
#	58897
#	74712
#	89185
#	106606
#	128733
#	146698
#	182687
#	217394
#	234032
#	249574
#
# Disc length: 3520 seconds
#
# Revision: 7
# Processed by: cddbd v1.5.2PL0 Copyright (c) Steve Scherf et al.
# Submitted via: EasyCDDAExtractor 15.3.0.1
#
DISCID=b50dbe0c
DTITLE=Chayanne - Vivo
DYEAR=2008
DGENRE=Latin
TTITLE0=Y Tu Te Vas
TTITLE1=Yo Te Amo, Atado A Tu Amor (Medley)
TTITLE2=No Te Preocupes Por Mi
TTITLE3=Caprichosa
TTITLE4=Tengo Miedo
TTITLE5=Si Nos Quedara Poco Tiempo
TTITLE6=Lola
TTITLE7=Dejaria Todo
TTITLE8=Un Siglo Sin Ti, Contra Vientos Y Mareas (Medley)
TTITLE9=Torero
TTITLE10=Te Echo De Menos
TTITLE11=Provocame
EXTD=
EXTT0=
EXTT1=
EXTT2=
EXTT3=
EXTT4=
EXTT5=
EXTT6=
EXTT7=
EXTT8=
EXTT9=
EXTT10=
EXTT11=
PLAYORDER=
